<svg width="143.680664" height="19.000000" viewBox="0 0 143.681 19" fill="none" xmlns="http://www.w3.org/2000/svg" xmlns:xlink="http://www.w3.org/1999/xlink">
	<desc>
			Created with Pixso.
	</desc>
	<defs>
		<clipPath id="clip2_1">
			<rect id="svg" width="143.680664" height="19.000000" fill="white" fill-opacity="0"/>
		</clipPath>
	</defs>
	<g clip-path="url(#clip2_1)">
		<path id="Vector" d="M5.51 2.19e-5L13.48 2.19e-5C16.93 2.19e-5 19 2.05 19 5.49L19 13.48C19 16.93 16.93 19 13.47 19L5.51 19C2.05 19 0 16.93 0 13.47L0 5.51C0 2.06 2.05 2.19e-5 5.51 2.19e-5ZM43.11 11.62L41.91 12.8L41.91 15L39.41 15L39.41 3.12L41.91 3.12L41.91 9.84L45.55 6.39L50.77 6.39L53.18 12.23L55.62 6.39L58.02 6.39L54.13 15.52C53.73 16.52 53.24 17.2 52.66 17.62C52.08 18.02 51.38 18.23 50.56 18.23C50.11 18.23 49.67 18.16 49.23 18.02C48.8 17.87 48.44 17.69 48.16 17.44L49.07 15.67C49.26 15.84 49.48 15.97 49.73 16.07C49.99 16.16 50.24 16.2 50.48 16.2C50.82 16.2 51.1 16.12 51.31 15.96C51.53 15.8 51.72 15.52 51.89 15.14L48.3 6.63L44.95 10.04L48.85 15L45.83 15L43.11 11.62ZM118.41 3.12L120.9 3.12L120.9 15L118.41 15L118.41 3.12ZM123.22 3.12L125.71 3.12L125.71 15L123.22 15L123.22 3.12ZM33.06 15.19C32.18 15.19 31.32 15.07 30.49 14.84C29.67 14.59 29 14.28 28.5 13.89L29.38 11.94C29.86 12.29 30.43 12.57 31.1 12.79C31.76 13 32.42 13.11 33.08 13.11C33.82 13.11 34.36 13 34.71 12.79C35.06 12.56 35.24 12.27 35.24 11.91C35.24 11.64 35.13 11.42 34.92 11.25C34.72 11.07 34.45 10.93 34.12 10.82C33.8 10.71 33.36 10.6 32.81 10.47C31.95 10.26 31.26 10.06 30.71 9.85C30.51 9.78 30.31 9.68 30.12 9.57C29.82 9.39 29.55 9.16 29.3 8.88C28.92 8.43 28.73 7.84 28.73 7.09C28.73 6.44 28.9 5.85 29.26 5.33C29.61 4.79 30.14 4.37 30.84 4.07C31.55 3.76 32.42 3.6 33.45 3.6C34.16 3.6 34.86 3.69 35.54 3.86C36.23 4.03 36.82 4.28 37.34 4.6L36.54 6.56C35.5 5.98 34.47 5.68 33.43 5.68C32.71 5.68 32.17 5.8 31.82 6.04C31.62 6.17 31.47 6.33 31.39 6.53C31.33 6.65 31.3 6.8 31.3 6.96C31.3 7.35 31.5 7.63 31.9 7.83C32.3 8.01 32.91 8.18 33.74 8.37C34.59 8.57 35.29 8.78 35.83 8.97C36.38 9.18 36.84 9.5 37.22 9.93C37.62 10.38 37.82 10.97 37.82 11.72C37.82 12.36 37.63 12.94 37.27 13.48C36.92 14 36.39 14.41 35.67 14.72C34.96 15.03 34.09 15.19 33.06 15.19ZM107.9 3.8L104.24 15L101.45 15L98.98 7.41L96.43 15L93.67 15L89.99 3.8L92.67 3.8L95.2 11.67L97.84 3.8L100.25 3.8L102.81 11.73L105.42 3.8L107.9 3.8ZM10.82 14.62C11.09 14.62 11.3 14.42 11.3 14.15L11.31 5.45C11.31 4.85 10.82 4.37 10.22 4.37L8.77 4.37C8.17 4.37 7.68 4.85 7.68 5.45L7.68 14.15C7.68 14.42 7.89 14.62 8.16 14.62L10.82 14.62ZM143.67 14.58C143.42 14.76 143.13 14.9 142.75 15C142.41 15.08 142.03 15.12 141.64 15.12C140.62 15.12 139.83 14.86 139.25 14.34C138.71 13.82 138.42 13.05 138.42 12.04L138.42 8.5L137.1 8.5L137.1 6.58L138.42 6.58L138.42 4.48L140.92 4.48L140.92 6.58L143.07 6.58L143.07 8.5L140.92 8.5L140.92 12C140.92 12.37 141 12.65 141.2 12.85C141.39 13.04 141.64 13.14 142 13.14C142.39 13.14 142.73 13.03 143 12.82L143.67 14.58ZM64.12 6.26C64.72 6.26 65.27 6.36 65.77 6.56C65.95 6.63 66.13 6.72 66.3 6.82C66.59 6.98 66.85 7.16 67.09 7.38C67.39 7.66 67.65 7.99 67.85 8.37C68.22 9.03 68.41 9.81 68.41 10.69C68.41 11.58 68.22 12.36 67.85 13.03C67.48 13.69 66.96 14.21 66.3 14.58C66.16 14.66 66.01 14.73 65.85 14.79C65.33 15.01 64.75 15.12 64.12 15.12C63.02 15.12 62.16 14.78 61.53 14.08L61.53 18.1L59.04 18.1L59.04 6.39L61.42 6.39L61.42 7.38C61.57 7.2 61.73 7.04 61.91 6.91C62.49 6.47 63.22 6.26 64.12 6.26ZM72.47 7.52C72.76 7.11 73.17 6.79 73.67 6.58C74.18 6.37 74.76 6.26 75.43 6.26L75.43 8.56C75.15 8.54 74.97 8.53 74.87 8.53C74.15 8.53 73.59 8.72 73.19 9.14C72.8 9.54 72.58 10.14 72.58 10.93L72.58 15L70.08 15L70.08 6.39L72.47 6.39L72.47 7.52ZM80.93 15.12C80.02 15.12 79.21 14.94 78.48 14.56C77.77 14.18 77.21 13.65 76.8 12.98C76.72 12.83 76.64 12.68 76.57 12.53C76.32 11.97 76.19 11.36 76.19 10.69C76.19 10.02 76.32 9.41 76.57 8.85C76.64 8.69 76.72 8.54 76.8 8.39C77.21 7.73 77.77 7.21 78.48 6.84C79.21 6.45 80.02 6.26 80.93 6.26C81.84 6.26 82.65 6.45 83.36 6.84C84.07 7.21 84.63 7.73 85.04 8.39C85.13 8.54 85.21 8.69 85.27 8.85C85.53 9.41 85.65 10.02 85.65 10.69C85.65 11.36 85.53 11.97 85.27 12.53C85.21 12.68 85.13 12.83 85.04 12.98C84.63 13.65 84.07 14.18 83.36 14.56C82.65 14.94 81.84 15.12 80.93 15.12ZM112 6.26C113.34 6.26 114.36 6.58 115.07 7.22C115.79 7.85 116.15 8.8 116.15 10.08L116.15 15L113.81 15L113.81 13.92C113.34 14.72 112.47 15.12 111.19 15.12C110.52 15.12 109.95 15.01 109.46 14.79C108.98 14.56 108.61 14.25 108.35 13.86C108.1 13.46 107.97 13.02 107.97 12.52C107.97 11.72 108.27 11.09 108.87 10.63C109.47 10.17 110.41 9.93 111.67 9.93L113.65 9.93C113.65 9.39 113.48 8.97 113.15 8.68C112.82 8.39 112.33 8.24 111.67 8.24C111.21 8.24 110.75 8.32 110.31 8.47C109.87 8.6 109.5 8.8 109.19 9.04L108.29 7.3C108.76 6.97 109.32 6.71 109.97 6.53C110.63 6.35 111.31 6.26 112 6.26ZM136.46 10.72C136.46 10.76 136.45 10.98 136.41 11.39L129.89 11.39C130.02 11.93 130.3 12.35 130.73 12.66C131.17 12.97 131.72 13.12 132.37 13.12C132.81 13.12 133.21 13.06 133.55 12.93C133.89 12.79 134.23 12.58 134.53 12.29L135.85 13.73C135.03 14.66 133.86 15.12 132.3 15.12C131.33 15.12 130.47 14.94 129.73 14.56C128.98 14.18 128.39 13.65 128 12.98C127.59 12.31 127.39 11.54 127.39 10.69C127.39 9.85 127.59 9.09 127.98 8.42C128.39 7.74 128.94 7.21 129.63 6.84C130.33 6.45 131.12 6.26 131.98 6.26C132.7 6.26 133.37 6.39 133.97 6.66C134.07 6.7 134.17 6.75 134.27 6.8C134.95 7.17 135.49 7.69 135.87 8.37C136.27 9.04 136.46 9.83 136.46 10.72ZM132 8.14C131.42 8.14 130.96 8.31 130.57 8.63C130.19 8.95 129.96 9.38 129.87 9.93L134.11 9.93C134.02 9.39 133.78 8.96 133.41 8.64C133.02 8.31 132.55 8.14 132 8.14ZM63.69 13.08C64.33 13.08 64.85 12.86 65.26 12.43C65.34 12.35 65.41 12.26 65.47 12.18C65.75 11.78 65.88 11.28 65.88 10.69C65.88 9.97 65.68 9.39 65.26 8.96C65.1 8.79 64.93 8.65 64.73 8.55C64.43 8.39 64.09 8.31 63.69 8.31C63.31 8.31 62.97 8.38 62.67 8.54C62.47 8.64 62.28 8.78 62.11 8.96C62.05 9.02 62 9.09 61.94 9.16C61.65 9.56 61.5 10.07 61.5 10.69C61.5 11.3 61.65 11.81 61.93 12.22C61.99 12.29 62.05 12.36 62.11 12.43C62.27 12.59 62.45 12.73 62.63 12.83C62.95 12.99 63.3 13.08 63.69 13.08ZM80.93 13.08C81.57 13.08 82.09 12.86 82.5 12.43C82.91 12 83.12 11.42 83.12 10.69C83.12 9.97 82.91 9.39 82.5 8.96C82.09 8.53 81.57 8.31 80.93 8.31C80.55 8.31 80.21 8.38 79.91 8.54C79.71 8.64 79.52 8.78 79.34 8.96C78.93 9.39 78.72 9.97 78.72 10.69C78.72 11.42 78.93 12 79.34 12.43C79.5 12.59 79.68 12.73 79.87 12.83C80.19 12.99 80.54 13.08 80.93 13.08ZM6.27 14.62C6.53 14.62 6.74 14.42 6.74 14.15L6.74 9.14C6.74 8.89 6.53 8.68 6.27 8.68L4.22 8.68C3.63 8.68 3.14 9.16 3.14 9.76L3.14 14.15C3.14 14.42 3.35 14.62 3.62 14.62L6.27 14.62ZM15.37 14.62C15.64 14.62 15.85 14.42 15.85 14.15L15.85 11.39C15.85 10.79 15.36 10.3 14.77 10.3L12.72 10.3C12.46 10.3 12.25 10.51 12.25 10.78L12.25 14.15C12.25 14.42 12.46 14.62 12.72 14.62L15.37 14.62ZM111.81 13.44C112.24 13.44 112.62 13.35 112.95 13.15C113.28 12.95 113.51 12.66 113.65 12.28L113.65 11.39L111.94 11.39C111.22 11.39 110.75 11.55 110.54 11.89C110.44 12.03 110.4 12.2 110.4 12.4C110.4 12.72 110.52 12.98 110.77 13.17C111.03 13.35 111.37 13.44 111.81 13.44ZM88.15 15.12C87.71 15.12 87.35 14.97 87.05 14.67C86.75 14.38 86.6 14 86.6 13.56C86.6 13.1 86.75 12.73 87.05 12.45C87.35 12.16 87.71 12.02 88.15 12.02C88.59 12.02 88.96 12.16 89.26 12.45C89.55 12.73 89.7 13.1 89.7 13.56C89.7 14 89.55 14.38 89.26 14.67C88.96 14.97 88.59 15.12 88.15 15.12Z" fill="#000000" fill-opacity="1.000000" fill-rule="evenodd"/>
	</g>
</svg>
